# xmcd
# Track frame offsets:
# 150
# 7897
# 17271
# 38434
# 50566
# 63090
# 73831
# 82650
# 94844
# 105088
# 117819
# 127871
# 138190
# 147911
# 156808
# 166544
# 174375
# 182708
# 193419
# 204782
# 215340
# 225720
# 234101
# 242740
# 252402
#
# Disc length: 3494 seconds
# Revision: 0
# Processed by: cddbd v1.5.1PL2 Copyright (c) Steve Scherf et al.
# Submitted via: VisiTrax 2.10.0.248 - For more info visit www.synapsa.com
#
DISCID=2d0da419
DTITLE=Fats Domino - They Call Me The Fat Man -Disc 4 - 1960-1962
DYEAR=1900
DGENRE=R&B
TTITLE0=Domino, Fats - Shu Rah
TTITLE1=Domino, Fats - My Girl Josephine
TTITLE2=Domino, Fats - Natural Born Lover
TTITLE3=Domino, Fats - Ain't That Just Like A Woman
TTITLE4=Domino, Fats - It Keeps Rainin'
TTITLE5=Domino, Fats - What A Price
TTITLE6=Domino, Fats - Fell In Love On Monday
TTITLE7=Domino, Fats - Bad Luck And Trouble
TTITLE8=Domino, Fats - Good Hearted Man
TTITLE9=Domino, Fats - One Night
TTITLE10=Domino, Fats - You Win Again
TTITLE11=Domino, Fats - Let The Four Winds Blow
TTITLE12=Domino, Fats - Your Cheatin' Heart
TTITLE13=Domino, Fats - What A Party
TTITLE14=Domino, Fats - Rockin' Bicycle
TTITLE15=Domino, Fats - Did You Ever See A Dream Walking
TTITLE16=Domino, Fats - Birds And Bees
TTITLE17=Domino, Fats - Jambalaya (On The Bayou)
TTITLE18=Domino, Fats - Do You Know What It Means To Miss New Orleans
TTITLE19=Domino, Fats - Stop The Clock
TTITLE20=Domino, Fats - My Real Name
TTITLE21=Domino, Fats - Hum Diddy Doo
TTITLE22=Domino, Fats - I Want To Go Home
TTITLE23=Domino, Fats - Dance With Mr. Domino
TTITLE24=Domino, Fats - Nothing New (Same Old Thing)
EXTD=ID3G: 14
EXTT0=
EXTT1=
EXTT2=
EXTT3=
EXTT4=
EXTT5=
EXTT6=
EXTT7=
EXTT8=
EXTT9=
EXTT10=
EXTT11=
EXTT12=
EXTT13=
EXTT14=
EXTT15=
EXTT16=
EXTT17=
EXTT18=
EXTT19=
EXTT20=
EXTT21=
EXTT22=
EXTT23=
EXTT24=
PLAYORDER=
